<?xml version="1.0" standalone="no"?>
<!DOCTYPE svg PUBLIC "-//W3C//DTD SVG 20010904//EN"
 "http://www.w3.org/TR/2001/REC-SVG-20010904/DTD/svg10.dtd">
<svg version="1.0" xmlns="http://www.w3.org/2000/svg"
 width="512.000000pt" height="512.000000pt" viewBox="0 0 512.000000 512.000000"
 preserveAspectRatio="xMidYMid meet">

<g transform="translate(0.000000,512.000000) scale(0.100000,-0.100000)"
fill="#000000" stroke="none">
<path d="M2171 4926 c-20 -21 -27 -55 -57 -267 -19 -133 -35 -243 -36 -244 -2
-2 -59 -22 -128 -45 -237 -80 -472 -216 -661 -383 l-95 -84 -220 89 c-221 90
-255 100 -289 80 -23 -12 -375 -618 -375 -645 0 -36 22 -58 214 -207 l193
-151 -19 -77 c-63 -264 -63 -601 1 -864 l18 -77 -194 -152 c-192 -150 -213
-170 -213 -206 0 -11 80 -158 178 -329 137 -237 185 -312 207 -323 27 -13 41
-8 264 81 l236 94 95 -84 c188 -166 430 -306 662 -383 68 -23 124 -42 126 -44
1 -1 18 -111 37 -245 29 -209 37 -246 56 -266 l22 -24 367 0 367 0 22 24 c20
21 27 55 57 263 19 131 34 241 34 244 0 4 46 21 101 38 180 57 426 179 449
221 6 10 10 32 10 49 0 34 -39 71 -76 71 -13 0 -67 -25 -121 -55 -120 -66
-224 -109 -367 -149 -83 -24 -113 -37 -127 -56 -14 -18 -27 -87 -51 -257 l-32
-233 -266 0 -266 0 -32 233 c-24 171 -37 239 -51 257 -14 19 -41 31 -113 50
-287 78 -526 215 -755 432 -72 69 -98 88 -121 88 -16 0 -122 -38 -237 -85
-114 -47 -213 -85 -219 -85 -10 0 -256 417 -264 446 -2 7 80 77 182 156 111
86 190 154 197 170 9 22 7 44 -14 125 -44 170 -52 238 -52 443 0 205 8 273 52
443 21 81 23 103 13 125 -6 16 -83 83 -191 167 -100 77 -183 144 -186 148 -7
11 249 457 263 457 6 0 105 -38 219 -85 115 -47 221 -85 237 -85 23 0 49 19
124 90 233 222 469 353 798 442 77 21 81 31 118 296 l32 232 266 0 266 0 32
-232 c24 -172 37 -240 51 -258 14 -19 41 -31 113 -50 287 -78 526 -215 755
-432 72 -69 98 -88 121 -88 16 0 122 38 237 85 114 47 213 85 219 85 14 0 270
-446 263 -457 -3 -4 -86 -71 -186 -148 -109 -85 -184 -151 -192 -167 -9 -23
-8 -42 9 -105 48 -180 57 -250 57 -463 0 -213 -9 -283 -57 -463 -17 -63 -18
-82 -9 -105 8 -16 83 -82 192 -167 100 -77 183 -144 186 -148 7 -11 -249 -457
-263 -457 -6 0 -104 38 -219 85 -114 47 -220 85 -235 85 -37 0 -69 -28 -76
-66 -11 -55 19 -74 281 -180 132 -53 253 -100 269 -105 56 -16 71 2 250 311
93 161 173 305 179 321 8 20 8 35 0 52 -7 14 -99 93 -206 176 l-194 152 18 77
c64 263 64 600 1 864 l-19 77 194 151 c107 84 199 163 206 177 8 17 8 32 0 52
-6 16 -86 160 -179 321 -123 213 -176 296 -196 306 -33 17 -36 16 -307 -94
l-195 -80 -95 85 c-205 181 -450 319 -703 398 -49 15 -88 28 -88 29 0 0 -16
111 -34 245 -30 211 -38 246 -57 267 l-22 24 -367 0 -367 0 -22 -24z"/>
<path d="M2415 3913 c-320 -41 -598 -175 -815 -393 -191 -190 -313 -418 -372
-693 -29 -135 -31 -388 -5 -520 52 -260 180 -507 356 -688 49 -51 62 -59 94
-59 48 0 77 28 77 75 0 29 -10 46 -59 99 -226 243 -345 562 -328 876 32 561
406 1001 959 1127 102 23 374 23 476 0 549 -125 927 -564 958 -1113 35 -589
-371 -1114 -958 -1240 -103 -22 -267 -28 -374 -15 -82 10 -128 20 -276 62 -44
12 -50 12 -75 -7 -36 -27 -44 -91 -15 -117 51 -46 263 -95 447 -104 371 -17
732 121 997 380 422 412 535 1027 287 1556 -224 478 -720 788 -1249 780 -52
-1 -108 -4 -125 -6z"/>
<path d="M2712 2963 c-33 -30 -432 -719 -432 -748 0 -59 83 -97 128 -57 34 29
432 717 432 746 0 60 -83 98 -128 59z"/>
<path d="M1878 2742 c-133 -133 -148 -151 -148 -182 0 -31 15 -49 148 -182
130 -130 152 -148 180 -148 44 0 82 38 82 81 0 27 -16 48 -107 140 l-107 109
107 109 c91 92 107 113 107 140 0 43 -38 81 -82 81 -28 0 -50 -18 -180 -148z"/>
<path d="M2995 2865 c-16 -15 -25 -35 -25 -56 0 -27 16 -48 107 -140 l107
-109 -107 -109 c-91 -92 -107 -113 -107 -140 0 -43 38 -81 82 -81 28 0 50 18
180 148 133 133 148 151 148 182 0 31 -15 49 -148 182 -130 130 -152 148 -180
148 -22 0 -41 -9 -57 -25z"/>
</g>
</svg>
