<svg xmlns="http://www.w3.org/2000/svg" width="300" height="400" viewBox="0 0 300 400">
  <rect width="300" height="400" fill="#0f172a"/>
  <rect x="0" y="0" width="300" height="48" fill="#1e293b"/>
  <rect x="12" y="14" width="90" height="20" rx="4" fill="#3b82f6"/>
  <rect x="180" y="17" width="108" height="14" rx="3" fill="#334155"/>
  <rect x="12" y="70" width="200" height="24" rx="4" fill="#f8fafc"/>
  <rect x="12" y="106" width="240" height="14" rx="3" fill="#334155"/>
  <rect x="12" y="128" width="180" height="14" rx="3" fill="#334155"/>
  <rect x="12" y="158" width="276" height="100" rx="6" fill="#1e293b"/>
  <rect x="24" y="170" width="100" height="10" rx="2" fill="#3b82f6"/>
  <rect x="24" y="190" width="200" height="8" rx="2" fill="#334155"/>
  <rect x="24" y="208" width="160" height="8" rx="2" fill="#334155"/>
  <rect x="24" y="226" width="220" height="8" rx="2" fill="#334155"/>
  <rect x="12" y="278" width="130" height="36" rx="6" fill="#3b82f6"/>
  <rect x="154" y="278" width="134" height="36" rx="6" fill="#1e293b" stroke="#334155" stroke-width="1"/>
  <text x="150" y="360" text-anchor="middle" font-family="sans-serif" font-size="12" fill="#64748b">git-hooks docs</text>
</svg>
